<mxfile host="app.diagrams.net" agent="Mozilla/5.0 (Macintosh; Intel Mac OS X 10_15_7) AppleWebKit/537.36 (KHTML, like Gecko) Chrome/133.0.0.0 Safari/537.36" version="26.1.0">
  <diagram name="第 1 页" id="WbPt4bbsBOw5-VIqv6sH">
    <mxGraphModel dx="2901" dy="1121" grid="1" gridSize="10" guides="1" tooltips="1" connect="1" arrows="1" fold="1" page="1" pageScale="1" pageWidth="827" pageHeight="1169" math="0" shadow="0">
      <root>
        <mxCell id="0" />
        <mxCell id="1" parent="0" />
        <mxCell id="G6fy1HRarIPwDXIXeRBV-1" value="组织结构1" style="rounded=0;whiteSpace=wrap;html=1;align=center;verticalAlign=top;" vertex="1" parent="1">
          <mxGeometry x="-290" y="320" width="770" height="520" as="geometry" />
        </mxCell>
        <mxCell id="G6fy1HRarIPwDXIXeRBV-2" value="管理单元&lt;br&gt;MU" style="rounded=0;whiteSpace=wrap;html=1;align=left;strokeColor=#d6b656;fillColor=#fff2cc;" vertex="1" parent="1">
          <mxGeometry x="-270" y="350" width="540" height="240" as="geometry" />
        </mxCell>
        <mxCell id="G6fy1HRarIPwDXIXeRBV-3" value="业务单元&lt;br&gt;BU" style="rounded=0;whiteSpace=wrap;html=1;align=left;strokeColor=#d6b656;fillColor=#fff2cc;" vertex="1" parent="1">
          <mxGeometry x="-270" y="600" width="540" height="80" as="geometry" />
        </mxCell>
        <mxCell id="G6fy1HRarIPwDXIXeRBV-4" value="" style="rounded=0;whiteSpace=wrap;html=1;fontSize=14;" vertex="1" parent="1">
          <mxGeometry x="-140" y="610" width="350" height="60" as="geometry" />
        </mxCell>
        <mxCell id="G6fy1HRarIPwDXIXeRBV-5" style="edgeStyle=orthogonalEdgeStyle;rounded=0;orthogonalLoop=1;jettySize=auto;html=1;entryX=1;entryY=0.5;entryDx=0;entryDy=0;endArrow=classic;endFill=1;" edge="1" parent="1" source="G6fy1HRarIPwDXIXeRBV-6" target="G6fy1HRarIPwDXIXeRBV-4">
          <mxGeometry relative="1" as="geometry">
            <Array as="points">
              <mxPoint x="230" y="505" />
              <mxPoint x="230" y="640" />
            </Array>
          </mxGeometry>
        </mxCell>
        <mxCell id="G6fy1HRarIPwDXIXeRBV-6" value="" style="rounded=0;whiteSpace=wrap;html=1;fontSize=14;" vertex="1" parent="1">
          <mxGeometry x="-140" y="430" width="350" height="150" as="geometry" />
        </mxCell>
        <mxCell id="G6fy1HRarIPwDXIXeRBV-7" style="rounded=0;orthogonalLoop=1;jettySize=auto;html=1;endArrow=ERoneToMany;endFill=0;startArrow=ERmandOne;startFill=0;" edge="1" parent="1" source="G6fy1HRarIPwDXIXeRBV-8">
          <mxGeometry relative="1" as="geometry">
            <mxPoint x="10" y="320" as="targetPoint" />
          </mxGeometry>
        </mxCell>
        <mxCell id="G6fy1HRarIPwDXIXeRBV-8" value="商家&lt;br&gt;（目前只在商业化有感知）" style="rounded=0;whiteSpace=wrap;html=1;fontSize=14;fillColor=#dae8fc;strokeColor=#6c8ebf;" vertex="1" parent="1">
          <mxGeometry x="-90" y="240" width="200" height="40" as="geometry" />
        </mxCell>
        <mxCell id="G6fy1HRarIPwDXIXeRBV-9" value="销售渠道&lt;br&gt;场景（触点）&lt;br&gt;区位" style="rounded=0;whiteSpace=wrap;html=1;align=left;strokeColor=#d6b656;fillColor=#fff2cc;" vertex="1" parent="1">
          <mxGeometry x="-270" y="690" width="540" height="120" as="geometry" />
        </mxCell>
        <mxCell id="G6fy1HRarIPwDXIXeRBV-10" value="" style="edgeStyle=orthogonalEdgeStyle;rounded=0;orthogonalLoop=1;jettySize=auto;html=1;endArrow=classic;endFill=1;" edge="1" parent="1" source="G6fy1HRarIPwDXIXeRBV-12">
          <mxGeometry relative="1" as="geometry">
            <mxPoint x="-60" y="430" as="targetPoint" />
          </mxGeometry>
        </mxCell>
        <mxCell id="G6fy1HRarIPwDXIXeRBV-11" style="edgeStyle=orthogonalEdgeStyle;rounded=0;orthogonalLoop=1;jettySize=auto;html=1;entryX=-0.001;entryY=0.421;entryDx=0;entryDy=0;entryPerimeter=0;endArrow=classic;endFill=1;" edge="1" parent="1" source="G6fy1HRarIPwDXIXeRBV-12" target="G6fy1HRarIPwDXIXeRBV-4">
          <mxGeometry relative="1" as="geometry">
            <Array as="points">
              <mxPoint x="-160" y="380" />
              <mxPoint x="-160" y="635" />
            </Array>
          </mxGeometry>
        </mxCell>
        <mxCell id="G6fy1HRarIPwDXIXeRBV-12" value="总部" style="rounded=0;whiteSpace=wrap;html=1;fontSize=14;fillColor=#dae8fc;strokeColor=#6c8ebf;" vertex="1" parent="1">
          <mxGeometry x="-120" y="360" width="120" height="40" as="geometry" />
        </mxCell>
        <mxCell id="G6fy1HRarIPwDXIXeRBV-13" style="edgeStyle=none;rounded=0;orthogonalLoop=1;jettySize=auto;html=1;endArrow=classic;endFill=1;" edge="1" parent="1" source="G6fy1HRarIPwDXIXeRBV-14" target="G6fy1HRarIPwDXIXeRBV-15">
          <mxGeometry relative="1" as="geometry" />
        </mxCell>
        <mxCell id="G6fy1HRarIPwDXIXeRBV-14" value="分公司" style="rounded=0;whiteSpace=wrap;html=1;fontSize=14;fillColor=#dae8fc;strokeColor=#6c8ebf;" vertex="1" parent="1">
          <mxGeometry x="-120" y="450" width="120" height="40" as="geometry" />
        </mxCell>
        <mxCell id="G6fy1HRarIPwDXIXeRBV-15" value="区域组织" style="rounded=0;whiteSpace=wrap;html=1;fontSize=14;fillColor=#dae8fc;strokeColor=#6c8ebf;" vertex="1" parent="1">
          <mxGeometry x="-120" y="530" width="120" height="40" as="geometry" />
        </mxCell>
        <mxCell id="G6fy1HRarIPwDXIXeRBV-16" style="edgeStyle=orthogonalEdgeStyle;rounded=0;orthogonalLoop=1;jettySize=auto;html=1;entryX=0.5;entryY=0;entryDx=0;entryDy=0;endArrow=classic;endFill=1;" edge="1" parent="1" source="G6fy1HRarIPwDXIXeRBV-17" target="G6fy1HRarIPwDXIXeRBV-20">
          <mxGeometry relative="1" as="geometry" />
        </mxCell>
        <mxCell id="G6fy1HRarIPwDXIXeRBV-17" value="店铺" style="rounded=0;whiteSpace=wrap;html=1;fontSize=14;fillColor=#dae8fc;strokeColor=#6c8ebf;" vertex="1" parent="1">
          <mxGeometry x="-120" y="620" width="120" height="40" as="geometry" />
        </mxCell>
        <mxCell id="G6fy1HRarIPwDXIXeRBV-18" value="仓库" style="rounded=0;whiteSpace=wrap;html=1;fontSize=14;fillColor=#dae8fc;strokeColor=#6c8ebf;" vertex="1" parent="1">
          <mxGeometry x="50" y="620" width="120" height="40" as="geometry" />
        </mxCell>
        <mxCell id="G6fy1HRarIPwDXIXeRBV-19" style="edgeStyle=orthogonalEdgeStyle;rounded=0;orthogonalLoop=1;jettySize=auto;html=1;entryX=0.5;entryY=0;entryDx=0;entryDy=0;" edge="1" parent="1" source="G6fy1HRarIPwDXIXeRBV-20" target="G6fy1HRarIPwDXIXeRBV-23">
          <mxGeometry relative="1" as="geometry" />
        </mxCell>
        <mxCell id="G6fy1HRarIPwDXIXeRBV-20" value="销售渠道" style="rounded=0;whiteSpace=wrap;html=1;fontSize=14;" vertex="1" parent="1">
          <mxGeometry x="-120" y="705" width="120" height="40" as="geometry" />
        </mxCell>
        <mxCell id="G6fy1HRarIPwDXIXeRBV-21" style="edgeStyle=orthogonalEdgeStyle;rounded=0;orthogonalLoop=1;jettySize=auto;html=1;entryX=1;entryY=0.5;entryDx=0;entryDy=0;endArrow=classic;endFill=1;" edge="1" parent="1" source="G6fy1HRarIPwDXIXeRBV-22" target="G6fy1HRarIPwDXIXeRBV-15">
          <mxGeometry relative="1" as="geometry">
            <Array as="points">
              <mxPoint x="110" y="550" />
            </Array>
          </mxGeometry>
        </mxCell>
        <mxCell id="G6fy1HRarIPwDXIXeRBV-22" value="合伙人" style="rounded=0;whiteSpace=wrap;html=1;fontSize=14;fillColor=#dae8fc;strokeColor=#6c8ebf;" vertex="1" parent="1">
          <mxGeometry x="50" y="450" width="120" height="40" as="geometry" />
        </mxCell>
        <mxCell id="G6fy1HRarIPwDXIXeRBV-23" value="销售场景&lt;br&gt;（未实现）" style="rounded=0;whiteSpace=wrap;html=1;fontSize=14;" vertex="1" parent="1">
          <mxGeometry x="-120" y="770" width="120" height="40" as="geometry" />
        </mxCell>
        <mxCell id="G6fy1HRarIPwDXIXeRBV-24" value="区位" style="rounded=0;whiteSpace=wrap;html=1;fontSize=14;" vertex="1" parent="1">
          <mxGeometry x="50" y="705" width="100" height="40" as="geometry" />
        </mxCell>
        <mxCell id="G6fy1HRarIPwDXIXeRBV-25" style="edgeStyle=orthogonalEdgeStyle;rounded=0;orthogonalLoop=1;jettySize=auto;html=1;" edge="1" parent="1" source="G6fy1HRarIPwDXIXeRBV-4" target="G6fy1HRarIPwDXIXeRBV-24">
          <mxGeometry relative="1" as="geometry" />
        </mxCell>
        <mxCell id="G6fy1HRarIPwDXIXeRBV-26" value="图示" style="rounded=0;whiteSpace=wrap;html=1;fontSize=14;verticalAlign=top;" vertex="1" parent="1">
          <mxGeometry x="-290" y="200" width="190" height="80" as="geometry" />
        </mxCell>
        <mxCell id="G6fy1HRarIPwDXIXeRBV-27" value="层级向下关联" style="endArrow=classic;html=1;" edge="1" parent="1">
          <mxGeometry x="-1" y="-40" width="50" height="50" relative="1" as="geometry">
            <mxPoint x="-160" y="260" as="sourcePoint" />
            <mxPoint x="-120" y="260" as="targetPoint" />
            <Array as="points">
              <mxPoint x="-160" y="260" />
            </Array>
            <mxPoint x="-40" y="-40" as="offset" />
          </mxGeometry>
        </mxCell>
        <mxCell id="G6fy1HRarIPwDXIXeRBV-28" value="" style="rounded=0;whiteSpace=wrap;html=1;align=left;strokeColor=#d6b656;fillColor=#fff2cc;" vertex="1" parent="1">
          <mxGeometry x="-160" y="225" width="40" height="20" as="geometry" />
        </mxCell>
        <mxCell id="G6fy1HRarIPwDXIXeRBV-29" value="层级分类" style="text;html=1;" vertex="1" parent="1">
          <mxGeometry x="-240" y="225" width="70" height="30" as="geometry" />
        </mxCell>
        <mxCell id="G6fy1HRarIPwDXIXeRBV-30" value="&amp;nbsp;目前支持最大5层" style="text;html=1;strokeColor=none;fillColor=none;align=center;verticalAlign=middle;whiteSpace=wrap;rounded=0;" vertex="1" parent="1">
          <mxGeometry x="80" y="560" width="150" height="20" as="geometry" />
        </mxCell>
      </root>
    </mxGraphModel>
  </diagram>
</mxfile>
